<svg xmlns="http://www.w3.org/2000/svg" viewBox="0 0 500 500"><defs><style>.cls-1{font-size:70px;}.cls-1,.cls-2{font-family:Osake;}.cls-2{font-size:30px;}.cls-2,.cls-3{fill:#fe0002;}.cls-4{fill:#0d115b;}.cls-5{fill:#010849;}.cls-6{fill:#fff;}</style></defs><g id="TEXT"><text class="cls-1" transform="translate(113.36 439.43)">ICONIC</text><text class="cls-2" transform="translate(194.14 467.35)">GAMES</text><path class="cls-3" d="M360.31,124a112.13,112.13,0,0,0-3.67-17.35,111.16,111.16,0,0,0-6.4-16A103.89,103.89,0,0,0,332.75,65.8,77.83,77.83,0,0,0,316,52.37a28.24,28.24,0,0,0-5.44-2.61c-1.33-.46-2.14-.53-2.36-.16s.29.93,1.29,1.87,2.59,2.1,4.47,3.76a131.3,131.3,0,0,1,15,14.08,115.63,115.63,0,0,1,16.48,23.81,114.61,114.61,0,0,1,6.35,15.08,112.74,112.74,0,0,1,4,16.43,111.66,111.66,0,0,1,1.11,16.9,113.48,113.48,0,0,1-1.62,16.4,110.17,110.17,0,0,1-9,27.87,101.21,101.21,0,0,1-11,17.75c-1.48,2.06-2.85,3.5-3.71,4.56s-1.34,1.59-1.34,1.59l1.44-1.5c.92-1,2.39-2.37,4-4.33a99.16,99.16,0,0,0,12.1-17.28,108.93,108.93,0,0,0,10.67-28,114,114,0,0,0,2.41-16.88A112.7,112.7,0,0,0,360.31,124Z"/><path class="cls-3" d="M164.15,228.23l-1.54-2-1.76-2.32c-.58-.85-1.19-1.74-1.83-2.66a138.09,138.09,0,0,1-7.91-13.08A156.59,156.59,0,0,1,144,192.26a170.06,170.06,0,0,1-5.14-16.52c-1.27-5.36-2.36-10.39-3-14.75-1.49-8.69-2.22-14.63-4-14.62-1.25,0-2.06,6.14-1.09,15.31a100.21,100.21,0,0,0,2.95,15.43A126,126,0,0,0,139.74,194a131.4,131.4,0,0,0,8.6,15.73,121.24,121.24,0,0,0,9.32,12.48c.75.86,1.44,1.7,2.13,2.47l2,2.14,1.78,1.88c.55.57,1.1,1.06,1.57,1.52l3,2.86-2.64-3.2C165.11,229.41,164.63,228.86,164.15,228.23Z"/><path class="cls-3" d="M205.24,37.86c1.25-.48,2.52-1.06,3.88-1.53l4.25-1.4c.73-.24,1.45-.52,2.21-.73l2.31-.61c1.56-.4,3.14-.88,4.77-1.26a127.58,127.58,0,0,1,20.82-2.84,123.62,123.62,0,0,1,21.08,1.14c1.67.25,3.29.61,4.9.9l2.38.45c.78.16,1.53.39,2.29.58l4.38,1.15c1.42.38,2.74.9,4,1.31s2.54.84,3.7,1.27l3.25,1.37,2.87,1.21c.88.38,1.65.82,2.36,1.17l4.48,2.28L295,39.6c-.69-.42-1.42-.93-2.26-1.41l-2.77-1.48L286.78,35c-1.13-.54-2.36-1.05-3.62-1.61s-2.58-1.18-4-1.69l-4.37-1.54c-.76-.25-1.51-.55-2.3-.78l-2.39-.65c-1.62-.42-3.27-.91-5-1.3a113.5,113.5,0,0,0-21.75-2.55,110.12,110.12,0,0,0-21.9,2.18c-1.72.36-3.39.84-5,1.26L214,29c-.79.23-1.56.53-2.33.78l-4.44,1.57c-1.42.53-2.74,1.2-4,1.77s-2.51,1.14-3.65,1.73-2.17,1.26-3.15,1.85-1.89,1.16-2.72,1.7-1.52,1.15-2.16,1.67c-2.54,2.12-3.75,3.62-3.26,4.33C189.1,45.61,195.29,41.83,205.24,37.86Z"/><path class="cls-3" d="M341,183.23l.36-.7c1-2.07,2-4.16,2.86-6.37s1.71-4.47,2.52-6.77,1.45-4.69,2-7.12a93.08,93.08,0,0,0,2.45-14.86,99.44,99.44,0,0,0,.1-15,100.34,100.34,0,0,0-6-27.32c-.82-2-1.52-4-2.4-5.78l-1.23-2.7L340.32,94a95.38,95.38,0,0,0-9.74-15.13c-1.31-1.73-2.46-3-3.21-3.88l-1.17-1.34,1.06,1.43c.69.93,1.74,2.27,2.91,4.08a96.83,96.83,0,0,1,8.6,15.59c.36.84.74,1.7,1.12,2.58l1,2.72c.74,1.83,1.31,3.81,2,5.79a111.43,111.43,0,0,1,3,12.79,106.88,106.88,0,0,1,1.37,13.93,101.65,101.65,0,0,1-.71,14.36,89.68,89.68,0,0,1-2.27,11.95A102.64,102.64,0,0,0,210.62,43.71l1.24-.5a97.12,97.12,0,0,1,23.85-5.5,112.79,112.79,0,0,1,21.34-.07c6.24.58,11.41,1.52,15.07,2.12a37.31,37.31,0,0,0,4.35.5c1,0,1.69-.18,1.84-.58s-.3-.76-1.18-1.33a22.64,22.64,0,0,0-4-2,67.06,67.06,0,0,0-15.44-3.88,91.68,91.68,0,0,0-22.55-.14,100,100,0,0,0-12.52,2.36A101.28,101.28,0,0,0,210.15,39a102.36,102.36,0,0,0-11.67,6,104,104,0,0,0-10.35,7.27,98.08,98.08,0,0,0-11,10.43,103.08,103.08,0,0,0-12.38,12.43c2.3-4,4.41-7.4,6-10C172,63,173,61.39,173.51,60.18s.69-2,.36-2.24-.91.12-1.91,1a33.5,33.5,0,0,0-4,4A98,98,0,0,0,156.5,79.33a130.7,130.7,0,0,0-11.06,26.14,140,140,0,0,0-3.66,15.61A144.43,144.43,0,0,0,140,137.52a146.21,146.21,0,0,0,.35,16.51,147.17,147.17,0,0,0,2.29,15.78,140.37,140.37,0,0,0,8.48,26.84,129.72,129.72,0,0,0,9.28,17.54c1.23,2.05,2.34,3.57,3,4.63l1.1,1.63-1-1.7c-.63-1.11-1.64-2.69-2.73-4.82A133.53,133.53,0,0,1,152.75,196a144.55,144.55,0,0,1-5.45-18.94,102.64,102.64,0,0,0,140.91,56.15l-.94.56c-1.39.84-2.61,1.56-3.64,2.09l-3.23,1.75,3.44-1.29c1.11-.4,2.42-1,3.91-1.62l2.39-1,2.6-1.27a113.81,113.81,0,0,0,12-6.88,124,124,0,0,0,12.67-9.69,114.32,114.32,0,0,0,11.14-11.49,85.86,85.86,0,0,0,8.06-11.43A41.75,41.75,0,0,0,341,183.23Z"/><path class="cls-4" d="M417.88,163.79s6.36-1.87,6.36-5.24-4.86-9.34-7.11-12.71-10.09-7.1-10.09-7.1-1.87-3-4.11-3.37a74.65,74.65,0,0,0-7.86-.37s-21.56-8.35-30.91-8-19.44,8.48-19.44,8.48S327,132,320.29,137.61c1.87-2.61-4.11-14.58-11.59-15.7S276.17,126,276.17,126s1.12-4.86-5.23-5.61S253,122.28,253,122.28s-12.33-20-17.94-20.72-18,12.87-18,12.87l-17.2-4.86s-15.33-6.35-22.06-4.49c-1.5-.37-28.79-10.84-34-11.21s-20.19,2.24-20.19,2.24-11.22-4.49-15-3.36-10.85,6-10.85,6a6.87,6.87,0,0,0-6,1.87c-2.62,2.62-7.1,14.21-7.1,14.21l-11.22,9,6,7.1,10.84-8.22s2.25,6,7.48,4.11S112,115.93,112,115.93s8.23-.75,12.71,0,7.48,6.35,14.59,7.85,15.7-1.5,15.7-1.5,1.87,15.71,30.66,19.45c.37,1.49-1.5,23.55,4.86,33.27-1.12,1.13,5.61,19.45,17.95,25.06,0,0-3.74,5.6,4.48,8.22.38,1.87-8.53,21.86,8.77,27.19-12,12.85-30.15,15.07-46.12,19.5s-32.19,13.14-34.06,19.12-4.49,12.34-5.61,15.33-1.5,12.71,1.87,17.2S149.05,310,149.05,310a65.49,65.49,0,0,0,21.31,4.86c12.34.75,16.08-2.24,20.94-4.86s18.32-6.73,18.32-6.73l5.61-4.11s27.29,31.41,31.78,30.28,5.23-5.23,4.11-9.34-21.68-28.79-21.68-28.79,16.07,1.49,21.68-1.5c1.5.38,16.45,5.61,24.31,3.37-1.5,1.87-9,7.1-9.73,11.59s6,13.83,6,13.83-6,62.07-1.13,63.19,14.21-6,16.46-12.34c1.44-4.08-.67-16.34-2.36-24.58a26.5,26.5,0,0,1,1.61-15.8s10.77-6.11,17.29-8a45.16,45.16,0,0,0,12-5.52,100.46,100.46,0,0,0,9.59-10.75c4.12-5.61,7.86-16.83,7.86-16.83s13.08-16.82,14.58-25.42,1.12-19.07-3.74-23.56-11.59-2.62-11.59-2.62-7.11-7.1-13.09-7.85-14.95,1.87-14.95,1.87L284,232.21s6.74-6,7.11-9.72,6.73-5.61,6.36-12,1.12-9.34,1.12-9.34,8.6-16.45,9-18,6-10.1,6-10.1,18.7-2.24,28.05-10.84c4.48-1.87,17.19-1.87,24.67-7.1,3-.75,17.2-5.61,17.2-5.61l13.09,4.49s5.23,11.21,7.48,12.71,6.35.75,6.35.75l10.47,10.84,5.61-4.11Z"/><path class="cls-5" d="M332.26,236.32s-7.11-7.1-13.09-7.85-14.95,1.87-14.95,1.87L284,232.21s.6-.53,1.43-1.35a16.73,16.73,0,0,0-3.57,2,18.73,18.73,0,0,0-2.46,2.17c-.44.46.26,1.17.71.7.24-.25.5-.48.76-.72-.22.4.21,1,.66.68,2.67-1.86,5.9-1.89,9-1.56s6.39,1.06,9.63.93c3.78-.14,7.44-1.27,11.23-1.45a30.8,30.8,0,0,1,10.49,1.34c5.65,1.74,11.73,5.75,13,11.92a8.49,8.49,0,0,1-.14,4.19,46.77,46.77,0,0,1-2,4.3,5.25,5.25,0,0,0-.1,4.2,33.53,33.53,0,0,0,2.67,4.28c2,3.2,3.65,6.79,3.82,10.61a12.05,12.05,0,0,1-3.4,9.36.44.44,0,0,0-.11.54c3.91-5.42,10.85-15.72,11.92-21.84,1.49-8.6,1.12-19.07-3.74-23.56S332.26,236.32,332.26,236.32Z"/><path class="cls-5" d="M235.61,236c-6-3.57-15.42-8.92-9.21-27.32.09-.27-21.93-11.84-22-11a22,22,0,0,0,4.06,2.43s-3.74,5.6,4.48,8.22c.38,1.87-8.53,21.86,8.77,27.19-12,12.85-30.15,15.07-46.12,19.5s-31.38,14.64-33.25,20.62-5.76,6.21-6.42,13.83c-.27,3.18-1.5,12.71,1.87,17.2S149.05,310,149.05,310s1.36.62,3.72,1.42a25.8,25.8,0,0,1-7.61-5.7,11,11,0,0,1-2.53-5.16,14.92,14.92,0,0,1,.82-7.12c.8-2.52,1.81-5,2.36-7.56a12.09,12.09,0,0,0,1.38,2.88,10.85,10.85,0,0,0,7.32,5,8.22,8.22,0,0,0,2.27,0c.63-.07.63-1.07,0-1a9,9,0,0,1-8-3.51,11.25,11.25,0,0,1-2.49-8.9c1.1-7,7.27-11.88,13.49-14.4a82.49,82.49,0,0,1,11.25-3.31c4.07-1,8.13-2.06,12.15-3.25s8.1-2.49,12.1-3.89c3.23-1.13,6.45-2.33,9.56-3.75,5.89-2.69,11.61-6.31,15.32-11.74.18-.26.36-.53.53-.81l1,.45,7.78,3.54,17.49,8c.3.13,3.66,1.12,3.62.7C249.84,245,241.14,239.28,235.61,236Z"/><path class="cls-5" d="M364.16,127c-9.34.37-19.44,8.48-19.44,8.48S327,132,320.29,137.61c1.87-2.61-4.11-14.58-11.59-15.7S276.17,126,276.17,126s1.12-4.86-5.23-5.61S253,122.28,253,122.28s-12.33-20-17.94-20.72-18,12.87-18,12.87l-17.2-4.86s-15.33-6.35-22.06-4.49c-1.5-.37-28.79-10.84-34-11.21-3.64-.26-12,.93-16.74,1.67,0,.09.09.17.13.27a2.61,2.61,0,0,1,.08,1c-.51-.36-1,.49-.5.87l.12.08a.68.68,0,0,1-.79,0c-.59-.26-1.1.61-.51.86a1.8,1.8,0,0,0,2.09-.38c4.26,2.58,9.52,1.56,14.23.83a29.09,29.09,0,0,1,9.35-.38,28.38,28.38,0,0,1,8,2.87c5.16,2.58,10,5.84,15.77,7,3.28.68,6.64.86,9.93,1.48a39.82,39.82,0,0,1,9.43,3.11c6.42,3,12.13,7.31,17.75,11.57a.5.5,0,0,0,.61-.07c5.27-5.23,12.75-12,20.83-10.73,6.72,1,10,7.53,13.85,12.37a17.62,17.62,0,0,0,7.49,6,.5.5,0,0,0,.62-.35c.65-3.13,4.13-3.89,6.9-3.63,3.53.33,6.46,2.59,9.69,3.86a11,11,0,0,0,5.24.87,15.73,15.73,0,0,0,4.47-1.46c1.52-.67,3.39-1.66,5.12-1.32,2,.41,2.55,2.52,3.38,4.11,2.81,5.42,9.87,3.81,14.85,4.07a13.22,13.22,0,0,1,4.89,1.07,47.88,47.88,0,0,1,4.53,2.79,10.48,10.48,0,0,0,8.46,1.31c3.19-.86,6-2.69,9-3.9a13.8,13.8,0,0,1,4.93-1.14,21.31,21.31,0,0,1,5.89,1.17,13.91,13.91,0,0,0,5.4.61,19.51,19.51,0,0,0,5.11-1.62,28.44,28.44,0,0,1,6.07-2,33.44,33.44,0,0,1,6.32-.45c7.18.07,14.83,1.4,21.54-1.95a13.86,13.86,0,0,0,2.22-1.39C382.59,130.57,370.54,126.77,364.16,127Z"/><path class="cls-5" d="M313.21,269c-2.25,1.67-5.69,2.8-8.22,1.06-1.84-1.26-2.81-4.26-1.18-6.05a.51.51,0,0,0-.1-.79c-4.29-2.23-8.67,2-10.16,5.75-1,2.42-1.39,5-2.28,7.46a12.66,12.66,0,0,1-1.73,3.37c-.75,1-1.69,1.83-2.37,2.87a6.89,6.89,0,0,0-1,3.54c-.09,1.43-.26,2.7-1.5,3.6a27.23,27.23,0,0,1-3.51,1.94c-1.24.63-2.48,1.24-3.71,1.9-4.4,2.37-9,5.8-10,11a12.06,12.06,0,0,0,1.4,7.68c1,2.12,2.32,4.2,2.88,6.5h-.08c-.41,4.33-5.77,61.84-1.1,62.92a5.8,5.8,0,0,0,2.24,0c0-.15.09-.3.13-.45a40.54,40.54,0,0,0,.74-6.78q.21-3.71.12-7.43a97.18,97.18,0,0,0-1.62-14.62c-.43-2.45-.88-4.91-1.13-7.39a47.09,47.09,0,0,1-.1-7.32c.27-4.91,1-9.8,1-14.72,0-1.08-.09-2.16-.2-3.24h0a.59.59,0,0,0,.19,0c0,.11,0,.22.05.33.07.63,1.07.64,1,0a9.62,9.62,0,0,0-.15-1c.33.44,1.09,0,.81-.57-2.66-5.14.74-11,4.81-14.23,4.56-3.61,10.26-5.34,15-8.64a19.32,19.32,0,0,0,5.71-5.82,1.88,1.88,0,0,0,.52-1c.12-.53-.64-.92-.91-.38-.12.24-.26.47-.39.7a1.76,1.76,0,0,1-1.61.27c-1.18-.34-1.47-1.67-1.36-2.75a9.74,9.74,0,0,1,3-5.47c2.92-3,6.8-4.72,10.21-7a21.49,21.49,0,0,0,5.14-4.55C314.12,269.39,313.71,268.63,313.21,269Z"/><path d="M241.51,75.36c4.82-3.3,7-8.53,4.81-11.69s-7.82-3-12.63.27-7,8.53-4.82,11.68S236.69,78.66,241.51,75.36Z"/><path d="M257.28,59.39c3.31-2.26,4.79-5.85,3.3-8s-5.36-2.08-8.67.18-4.79,5.86-3.3,8S254,61.66,257.28,59.39Z"/><path d="M337.55,58.9c3.3-2.27,4.78-5.86,3.3-8s-5.37-2.08-8.68.18-4.78,5.86-3.3,8S334.24,61.16,337.55,58.9Z"/><path d="M350.12,176.18c-3.31,2.27-4.78,5.86-3.3,8s5.37,2.08,8.67-.18,4.79-5.86,3.31-8S353.43,173.92,350.12,176.18Z"/><path d="M339.93,122.47c3.31-2.27,4.78-5.86,3.3-8s-5.37-2.08-8.67.18-4.79,5.86-3.3,8S336.62,124.73,339.93,122.47Z"/><ellipse cx="180.82" cy="89.74" rx="7.26" ry="4.75" transform="translate(-19.07 117.89) rotate(-34.41)"/><path d="M257.05,70.46c.95,1.38,3.44,1.33,5.55-.12s3.07-3.74,2.12-5.13-3.44-1.33-5.55.12S256.1,69.07,257.05,70.46Z"/><path d="M315.31,90.84c2.12-1.45,3.06-3.75,2.11-5.13s-3.43-1.34-5.55.11-3.06,3.75-2.11,5.14S313.19,92.29,315.31,90.84Z"/><path d="M325.28,83.38c1.55-1.06,2.38-2.57,1.84-3.35s-2.24-.56-3.8.5-2.38,2.57-1.84,3.36S323.72,84.45,325.28,83.38Z"/><path d="M219.74,66.56c1.56-1.06,2.38-2.57,1.84-3.35s-2.23-.56-3.79.51-2.38,2.56-1.85,3.35S218.18,67.63,219.74,66.56Z"/><path d="M292.65,89.06c1.55-1.06,2.38-2.57,1.84-3.35s-2.24-.56-3.79.51-2.39,2.56-1.85,3.35S291.09,90.13,292.65,89.06Z"/><path d="M199.15,89c-1.56,1.06-2.38,2.57-1.84,3.35s2.23.56,3.79-.5,2.38-2.57,1.84-3.36S200.71,87.94,199.15,89Z"/><path d="M333.88,175.94c1.55-1.06,2.38-2.57,1.84-3.35s-2.24-.56-3.8.5-2.38,2.57-1.84,3.36S332.32,177,333.88,175.94Z"/><path d="M228.75,257.28a6.36,6.36,0,0,0-.84-1.27A3,3,0,0,0,228.75,257.28Z"/><path d="M273.12,321.51a1.35,1.35,0,0,0,1.55-.64,1.46,1.46,0,0,0,.13-1.07c-.06-.18-.19-.26-.37-.36-1-1.44-2.19-3-3.24-4.68a17.74,17.74,0,0,1-2.58-6.33,8.87,8.87,0,0,1,1.24-6.62,11.58,11.58,0,0,1,1.17-1.4c.44-.45,1-.83,1.46-1.27a17.87,17.87,0,0,1,3.41-2.09,41.57,41.57,0,0,1,7.9-2.61c2.69-.66,5.37-1.25,7.9-2a33.31,33.31,0,0,0,7-2.85,17.19,17.19,0,0,0,4.93-4.18,22.12,22.12,0,0,1-5.56,2.81,46.55,46.55,0,0,1-6.94,1.63l-1.84.28a14.16,14.16,0,0,1,3.16-9.21c1.35-.7,2.75-1.38,4.2-2a120.71,120.71,0,0,0,12.84-6.06,27.66,27.66,0,0,0,8.77-7.65,48.24,48.24,0,0,1-10,5.27c-2.76,1.14-5.83,2.2-9,3.45a8,8,0,0,1-1.95-5.17,9.27,9.27,0,0,1,.09-1.39,23.8,23.8,0,0,1,2.52-2.13c1.42-1,3-1.94,4.49-2.85s3-1.82,4.41-2.72a68,68,0,0,0,7.09-5.22,69.1,69.1,0,0,0-8.32,2.86c-1.54.63-3.12,1.32-4.76,2.09-1,.46-2,1-2.95,1.55l.18-.31a29.89,29.89,0,0,1-6.13,1.72,182,182,0,0,1,22.8-16.45,60.08,60.08,0,0,0-12.3,4.92,70.59,70.59,0,0,0-9,5.72l.56-.63c3.2-3.52,6.34-6.73,9.37-9.56s6-5.27,8.63-7.43a27.62,27.62,0,0,0-11.62,3,39.87,39.87,0,0,0-10.73,8c.92-1.62,1.81-3.19,2.69-4.66,2.64-4.45,5.41-8.11,8.7-10.72a17.9,17.9,0,0,0-6.55,2.36A30.35,30.35,0,0,0,290.1,242a61.25,61.25,0,0,0-4.87,5.77c1.66-4.35,3-8.27,4.13-11.74a44.56,44.56,0,0,0-8.91,9.51c-2.87,3.92-5.58,8.37-8.57,12.64-.45.64-.9,1.25-1.36,1.86a32.27,32.27,0,0,1-29-2.49c-.83-.68-1.64-1.4-2.44-2.18a1.72,1.72,0,0,0-1.34-1.33c-.85-.89-1.68-1.82-2.49-2.8-1.64-2-3.12-4-4.5-6.07-.81-1.21-1.61-2.44-2.43-3.63l.59.41c1.86,1.32,3.77,2.78,5.84,4.22A42.42,42.42,0,0,0,241.2,250a22.09,22.09,0,0,0,6.87,2,16.19,16.19,0,0,0,6.39-.48,11.19,11.19,0,0,0,4.68-2.7,13.8,13.8,0,0,1-4.95,1.21,18,18,0,0,1-3.7-.23,21.52,21.52,0,0,0-3.17-4.9,39.22,39.22,0,0,0-5.25-4.87c-3.9-3.14-8.57-6-12.07-10a19,19,0,0,1-4.28-8.14c1.7.61,3.51,1.18,5.42,1.67a54.83,54.83,0,0,0,17.7,1.61A46.2,46.2,0,0,0,266,220.31a37.85,37.85,0,0,0,11.3-8.75,46.85,46.85,0,0,1-11.87,7.55,52.11,52.11,0,0,1-16.7,4.19,64,64,0,0,1-17.27-1.09c-2.08-.4-4.06-.88-5.93-1.39a19.71,19.71,0,0,1-.38-4.43,24.13,24.13,0,0,1,1.31-6.83,48.75,48.75,0,0,0,13,1.89,57.61,57.61,0,0,0,24.43-5.15c-6.31.52-14.92,1.61-24.39,1.51a92.17,92.17,0,0,1-12.07-.93l.61-1.63a51.07,51.07,0,0,0,30.09-5.13,43.5,43.5,0,0,0,10.4-7.34,107,107,0,0,1-11.46,4.9,81,81,0,0,1-29.69,4.8,107.43,107.43,0,0,1-12.42-1,43.63,43.63,0,0,0,12.19,3.69l.51.07c-.37.5-.73,1-1.1,1.56l-.31,0a98.77,98.77,0,0,1-10.72-2.35,36.09,36.09,0,0,0,9.56,4.75s-.05.08-.07.13a20.53,20.53,0,0,0-2.48,6.88,19.9,19.9,0,0,0-.22,3.73c-1.58-.5-3.06-1-4.44-1.5,1.36.71,2.85,1.44,4.48,2.13a19.43,19.43,0,0,0,.66,3.94,20.18,20.18,0,0,0,1.66,4.16,17.17,17.17,0,0,0,1.22,1.95,16.58,16.58,0,0,0,1.43,1.82,33.25,33.25,0,0,0,6.65,5.68c2.3,1.54,4.55,2.83,6.64,4.1a67,67,0,0,1,5.73,3.78,31.66,31.66,0,0,1,4.06,3.78c-.6-.1-1.2-.22-1.8-.38a25.55,25.55,0,0,1-5.82-2.37,67.68,67.68,0,0,1-5.89-3.76c-2-1.4-4-2.81-6.05-4.06a50.52,50.52,0,0,0-6.11-3.12l-1.85-.83a11.77,11.77,0,0,0-1-.78,11.64,11.64,0,0,0-2.45-1.31,41.13,41.13,0,0,1-3.78-4.35,8.47,8.47,0,0,1-1.32-2.93,17.2,17.2,0,0,1-.26-3.69c0-2.85-.09-5.48,0-7.86a36.55,36.55,0,0,1,.48-4.83c.33.08.66.15,1,.2a11.91,11.91,0,0,0,4.05-.13c-1.74-1.68-4.4-3.06-6.62-4.7a13.92,13.92,0,0,1-4-4.48,5.29,5.29,0,0,0,.58.23c-.29-.23-.55-.47-.83-.71a7.85,7.85,0,0,1-.32-.8,2.84,2.84,0,0,0-.22.34c-34.86-30.56-9.43-79.19,3.45-86.28,2.13.43,4.1.8,5.85,1.06a65.28,65.28,0,0,0-38.79-9.26l-10.19-5.05A92.61,92.61,0,0,0,155,94.28a38.52,38.52,0,0,0-14.71-1.73,23.79,23.79,0,0,0-8.26,2.26c-4.52.62-8.44,1.31-8.44,1.31l-.15-.06c21.28-17.29,83-67.28,86.73-68.82-21.4,2-80.1,51.49-96.6,65.76a11.48,11.48,0,0,0-4.94-.25c-3.74,1.13-10.84,6-10.84,6a6.87,6.87,0,0,0-6,1.87c-2.62,2.61-7.1,14.21-7.1,14.21l-11.22,9,6,7.1,10.84-8.21s2.25,6,7.48,4.11S112,115.94,112,115.94a77.28,77.28,0,0,1,11.33-.18h0c.49,0,1,.1,1.38.17,4.49.75,7.48,6.35,14.59,7.85s15.7-1.5,15.7-1.5,1.87,15.71,30.66,19.45c0,0-4.62,10.21-.52,28.78,3.63,16.47,17.38,26.54,22.71,29.32a5.5,5.5,0,0,0-.2,3.42,8.14,8.14,0,0,0,3,4.46,10.05,10.05,0,0,0,2.9,1.47,14.79,14.79,0,0,0-2.24,4.63,29.06,29.06,0,0,0-1,8.33,13.86,13.86,0,0,0,.66,4.64,9,9,0,0,0,2.6,3.75,13.1,13.1,0,0,0,2.68,1.76,14.82,14.82,0,0,0,2.1,2.36,26.36,26.36,0,0,0,2.75,2.18,46.88,46.88,0,0,1-5.1,3.8,59.2,59.2,0,0,1-14.77,6.58c-6.21,1.95-13.58,3.34-21.3,5.33a89.93,89.93,0,0,0-11.66,3.79,82.13,82.13,0,0,0-11.18,5.59,77.68,77.68,0,0,0-10,7.15c-.46.4-.9.81-1.33,1.24a14.88,14.88,0,0,1,2.42-3.24,12.34,12.34,0,0,0-4.22,3.41,14.79,14.79,0,0,0-2.79,5.86,15.1,15.1,0,0,0,.09,7.4,14,14,0,0,0,1.59,3.73,15.9,15.9,0,0,0,2.61,3.2,21.66,21.66,0,0,0,13.76,5.49c4.49.24,10.6-2.57,10.81-2.7s-.11-.17-.86-.06a27.19,27.19,0,0,1-9.39,0,24.91,24.91,0,0,1-7.34-2.56,20.56,20.56,0,0,1-6.89-5.88,11.41,11.41,0,0,1-1.05-2.24,13.92,13.92,0,0,1-.74-5.17,8.64,8.64,0,0,1,.63-1.76,15.53,15.53,0,0,1,3.32-4.21A52.79,52.79,0,0,1,152.3,268a82.28,82.28,0,0,1,21.3-11.13c7.53-2.59,15.17-4.09,21.88-5.93a74.88,74.88,0,0,0,16.69-6.34,36.54,36.54,0,0,0,7.75-5.53c.64-.62,1.13-1.16,1.52-1.61a16.08,16.08,0,0,0-.22,3.24A20.15,20.15,0,0,0,227,254a15.6,15.6,0,0,0,4.91,3.38,116,116,0,0,1-5.72-11c-1.12-2.57-2-5.07-2.74-7.36.32.51.64,1,.95,1.58,1.12,1.94,2.19,4.08,3.48,6.31a48.07,48.07,0,0,0,4.56,6.59,37.23,37.23,0,0,0,4.67,4.72,10.11,10.11,0,0,1-2.57.38,12,12,0,0,0-2.23.41c-7.36-2.9-13.86-6.1-18.86-8a56.65,56.65,0,0,0,15.86,10.7,4.18,4.18,0,0,1-.64,1.83,6.51,6.51,0,0,1-2.83,2.59l-1.77-.41c-6-1.43-11.83-2.72-17.29-3A30.93,30.93,0,0,0,192.74,265a45.11,45.11,0,0,1,13.78.39c5.13.85,10.7,2.42,16.73,3.86,1,.25,2.08.47,3.11.69a3.94,3.94,0,0,1,.18,2.07,4.24,4.24,0,0,1-1.8,2.58c-1.22-.49-2.45-1-3.69-1.51-5.4-2.25-10.8-4.23-16-5a28.79,28.79,0,0,0-7.37-.21,21.6,21.6,0,0,0-6.09,1.6,32.66,32.66,0,0,1,12.91,1.21,131.32,131.32,0,0,1,15.12,5.74,74.47,74.47,0,0,0,9.64,3.33c.09.21.16.43.23.65a143.68,143.68,0,0,1-14.88-.48c-7.66-.63-15.07-1.54-21.92-2a90.71,90.71,0,0,0-18.26.36c5,1.5,10.82,3.2,17.43,4.89a149.12,149.12,0,0,0,17.82,3.52c-1.75,0-3.52,0-5.32-.07-8.41-.32-16.48-1.33-23.89-2.28s-14.15-1.83-19.86-2.15a130.1,130.1,0,0,0,18.74,7.35A98.75,98.75,0,0,0,204.13,294a72.67,72.67,0,0,0,13.3-.74l-2.18.44c-6,1.17-12.6,2.3-19.56,3.21s-13.62,1.44-19.73,1.83l-16.46.89A62.81,62.81,0,0,0,175.75,304a79.88,79.88,0,0,0,37.5-3.91,96.85,96.85,0,0,1-9.89,5,88.13,88.13,0,0,1-18.1,5.6,85.2,85.2,0,0,1-9.73,1.28,66.54,66.54,0,0,1-9.11.13,44.82,44.82,0,0,1-12.65-2.45,17.43,17.43,0,0,0,4.79-4A26.46,26.46,0,0,1,150,308.4,13.15,13.15,0,0,1,140.4,306a11,11,0,0,1-3.14-3.94,12.81,12.81,0,0,1-1.13-4.75,29.46,29.46,0,0,1,.32-5.7,9.81,9.81,0,0,0,1.66,2,11.89,11.89,0,0,0,2.9,1.91,15.83,15.83,0,0,0,5.35,1.36c-2.13-2.3-5.82-4.61-7.24-7.94a7.69,7.69,0,0,1-.66-2.49,5.1,5.1,0,0,1,.33-2.31c.3-.81.77-1.68,1.1-2.59a4.42,4.42,0,0,0,.25-2.65c-.71,1.47-2.14,2.11-3.63,3.86a6.6,6.6,0,0,0-1.43,3.6,8.16,8.16,0,0,0,.67,3.93,20.25,20.25,0,0,0-2.28,6.93,13.23,13.23,0,0,0,.66,6.14,12.6,12.6,0,0,0,4,5.51,12.74,12.74,0,0,0,6.28,2.6,14.56,14.56,0,0,0,6.09-.5,16,16,0,0,0,2.67-1.08,28.67,28.67,0,0,0,4.62,2.45,37.69,37.69,0,0,0,8.31,2.32,50.52,50.52,0,0,0,9.57.61,61.45,61.45,0,0,0,28.85-7.88,54.88,54.88,0,0,0,11.24-8.28l1-.4c1.51-.63,3-1.3,4.35-2,14,4.13,24.1,14.59,30.37,27.58a11.23,11.23,0,0,0-.4-4.25c-1-3.84-19-25.53-21.41-28.46l.39-.28c3.09.24,16.09,1.08,21-1.55,1.5.38,16.45,5.61,24.31,3.37l-.17.19c-.32.13-.63.27-.94.42a19.63,19.63,0,0,0-4.1,2.6c-.59.56-1.22,1.05-1.76,1.66a13,13,0,0,0-1.46,2,10.2,10.2,0,0,0-1.47,4.62A12.11,12.11,0,0,0,266,309a16.85,16.85,0,0,0,4,6.65,33.57,33.57,0,0,0,2.79,2.63c-.5-.24-.9-.28-1.2.09a1.74,1.74,0,0,0-.06,1.75A2.37,2.37,0,0,0,273.12,321.51Zm-93.41-203c-6.48-5.49-8-3-17-4.49s-5-10-5-10a31.63,31.63,0,0,1-11.47,9c-7,3-11-2-17.44-4a35.73,35.73,0,0,0-4.69-1.08,23.59,23.59,0,0,1,8-12.19,33.53,33.53,0,0,1,8.26-.59A56.43,56.43,0,0,1,154,97.75c4.75,1.47,9.26,3.2,13.47,4.56A60.44,60.44,0,0,0,178.37,105c4.95,1.6,11.8,3.26,19.39,5l3.24.76a59.18,59.18,0,0,0-13.08,21.16C186.11,127.36,183.29,121.58,179.71,118.55Z"/><path d="M350.14,245.21a16.14,16.14,0,0,0-1.82-3.07c-.3-.4-.63-.79-1-1.16a8.9,8.9,0,0,0-3.72-3.23l.1.2-.33-.22a14.43,14.43,0,0,0-5.72-1.9,10.69,10.69,0,0,0-5,.69,16.25,16.25,0,0,0-4.84-5.45A19.16,19.16,0,0,0,309.06,229a16.84,16.84,0,0,0-2.16,1.11,56.37,56.37,0,0,0-13.94-.91,31.15,31.15,0,0,0-6.19,1.1l.1-.11a25.05,25.05,0,0,0,5.13-8.33,58.15,58.15,0,0,1-6.93,6.38,47,47,0,0,1-20.4,9.14,57.76,57.76,0,0,1-9.38.92,24.89,24.89,0,0,0,9.64,1.72,29.78,29.78,0,0,0,8.26-1.3c-3.74,3.48-6.86,7-10.16,9.75a35.18,35.18,0,0,1-6.15,4.27,22.23,22.23,0,0,1-6.19,2.22,17.73,17.73,0,0,0,6.77-.83,28.32,28.32,0,0,0,7.16-3.53c4.75-3.1,8.94-7.63,13.64-11.53a34.35,34.35,0,0,1,7.29-4.78,33.2,33.2,0,0,1,7.77-2.46,132.24,132.24,0,0,1,13.27-1.53,15.39,15.39,0,0,0-3.73,3.26,38.67,38.67,0,0,1,7-2,29.18,29.18,0,0,1,8.46-.33,29.55,29.55,0,0,1,8.17,2.2,38.84,38.84,0,0,1,6.37,3.52l-.17-.31c4.76-.68,9.84,2.2,12.64,6.78a9.93,9.93,0,0,1-.17,2.55c-.54,2.76-2.43,5.45-5.06,7.85a29.33,29.33,0,0,1-8.61,5.38,37.59,37.59,0,0,1-8.66,2.35,16.88,16.88,0,0,0,9.63,1.52,20.5,20.5,0,0,0,11.26-5.18q-.34.69-.72,1.38a61.46,61.46,0,0,1-8.82,12.26c-7.34,7.91-15.78,13.27-21.82,17.2a53.47,53.47,0,0,0,11.86-4.87,51.61,51.61,0,0,0,12.63-9.86,42.82,42.82,0,0,0,8.57-13.63,34.51,34.51,0,0,0,1.86-6.84l.32-.58a31.2,31.2,0,0,1-1.81,9.19,52.63,52.63,0,0,1-6.6,12.57,58.43,58.43,0,0,1-21,17.78,59.92,59.92,0,0,1-22.11,6.17,45.61,45.61,0,0,0,23.71-2.52,53.92,53.92,0,0,0,12.68-6.95c-1.19,1.93-2.47,4-3.88,6.07a70.3,70.3,0,0,1-6.91,4.27,61.53,61.53,0,0,1-25.91,7.33,76.68,76.68,0,0,1-11.24-.22,34.13,34.13,0,0,0,11.2,2.88,40.45,40.45,0,0,0,27.37-7.75c.78-.57,1.51-1.17,2.2-1.77a61.15,61.15,0,0,1-11.12,12.34,30.21,30.21,0,0,1-7.93,4.54,33,33,0,0,1-8.41,2.07,37.26,37.26,0,0,1-15.09-1.44,24.22,24.22,0,0,0,6.48,3.64,14,14,0,0,0-3.57,1.19,17.28,17.28,0,0,0-7.27,6.89,19.56,19.56,0,0,0-2.49,9.59,18.91,18.91,0,0,0,1.57,7.64c.41-4.34,1.1-10.16,4.08-15.44a23,23,0,0,1,5.51-6.42,21.69,21.69,0,0,1,4.4-2.72,27.93,27.93,0,0,0,5.19.94c-1.17.32-2.37.66-3.62,1.08a23.7,23.7,0,0,0-4.37,1.88,13.64,13.64,0,0,0-6.64,8.43,19.74,19.74,0,0,0-.64,5.78,43,43,0,0,0,2.24,11.51,56.73,56.73,0,0,1,2.54,10.61,14.84,14.84,0,0,1-1.56,9.23,16.68,16.68,0,0,1-4.2,4.59,13.93,13.93,0,0,0,.87-2.6,18.1,18.1,0,0,0,0-7.41,22.27,22.27,0,0,0-1.88-5.54c-.76,3.3-.73,7.8-1.67,12.15a16.85,16.85,0,0,1-5.81,9.81H272l-.3.23.49-.24a8.36,8.36,0,0,0,5.3-2.33,9,9,0,0,0,.69-.69l.86-.44a36.42,36.42,0,0,0,4-2.42,15.45,15.45,0,0,0,3.75-3.66,14.35,14.35,0,0,0,2.29-5.18,20.67,20.67,0,0,0,.41-5.77,48.89,48.89,0,0,0-2.44-11.42,48.62,48.62,0,0,1-2.33-10.59,14,14,0,0,1,2-9.08c1.63-2.52,4.31-4.13,6.88-5.46,1.65-.83,3.27-1.58,4.79-2.34a29.34,29.34,0,0,0,9.49-1.27,29,29,0,0,0,9.67-5.06,39,39,0,0,0,7.32-7.78,58.21,58.21,0,0,0,4.93-8.31,56.82,56.82,0,0,0,4.51-12.79,50.52,50.52,0,0,0,9.3-9.85,49.18,49.18,0,0,0,7-14.22,29.17,29.17,0,0,0,.72-15A20.74,20.74,0,0,0,350.14,245.21Z"/><path d="M256.36,232.09a42.67,42.67,0,0,0,13.16-.26A48.65,48.65,0,0,0,285,226.27a33,33,0,0,0,7-5.13,19.86,19.86,0,0,0,4.63-6.83,25.05,25.05,0,0,0,1.6-7.05,49.22,49.22,0,0,0,.15-6.09c-.5,1.78-1,3.74-1.63,5.8a31.91,31.91,0,0,1-2.52,6.2c-2.17,4.06-6.24,7.26-11.05,9.94a73.28,73.28,0,0,1-14.3,6.13A93.3,93.3,0,0,1,256.36,232.09Z"/><path d="M261.76,177.06a32.59,32.59,0,0,0,14-23.76,88.1,88.1,0,0,1-5.92,12.51A89.92,89.92,0,0,1,261.76,177.06Z"/><path d="M417.88,163.79a17.28,17.28,0,0,0,2.91-1.22h0c1.68-.89,3.46-2.24,3.46-4,0-3.36-4.86-9.34-7.11-12.71s-10.09-7.1-10.09-7.1-1.87-3-4.11-3.37a46.88,46.88,0,0,0-5-.33c-17-18.12-66.9-69.63-87.16-73.69,1.59.86,13.51,12.43,28,26.74a1.43,1.43,0,0,0-.21.12c-3.31,2.27-4.79,5.86-3.31,8s5.37,2.09,8.68-.18a10,10,0,0,0,1.56-1.3c12.78,12.71,26.54,26.51,36.5,36.52a23.63,23.63,0,0,1,3.37,10.35c-5.38-2.64-13.8-5.91-19.69-4.12-4.86,1.47-9.77,7.76-14.23,12.53,0-.15-.05-.3-.09-.45a9.42,9.42,0,0,0-4.84-6.29,42.25,42.25,0,0,0,1.32,7.19c.22.85.45,1.67.68,2.46a16.13,16.13,0,0,1-2.38,1.81c0-.12,0-.23,0-.35a16.27,16.27,0,0,0-7-11.63,12.34,12.34,0,0,0-5.19-2,61,61,0,0,1,6.87,9,49.71,49.71,0,0,1,3,5.94,3.52,3.52,0,0,1-3-1.19C326.77,140,322.29,143,322.29,143s5.48,17.95-9.47,25.93c-1,.52-1.95,1-2.88,1.4.18-.61.36-1.22.54-1.85a67.78,67.78,0,0,0,2.11-9.17,14.49,14.49,0,0,0-5.61,8.18,16.28,16.28,0,0,0-.63,4.21c-.92.29-1.8.53-2.66.72.43-1.91.88-3.91,1.34-6,1.48-6.59,2.89-12.55,3.59-17a43.3,43.3,0,0,0-7.14,16.25,49.44,49.44,0,0,0-1.07,7.31,25.13,25.13,0,0,1-2.81.11,105.8,105.8,0,0,1,2.14-12,129.91,129.91,0,0,1,6.69-19.47,34.47,34.47,0,0,0-5.83,7.57A42.47,42.47,0,0,0,295.05,172l.06.86c-.55-.08-1.06-.18-1.53-.28-1.07-13.25,3.73-26.53,13.21-39.84l13.5,4.9s2.39-9.22-5.36-14a18,18,0,0,0-5.24-2.94,28.11,28.11,0,0,0-12.82-1.27,58,58,0,0,0-6.44,1.09c-2,.46-4,.93-5.83,1.48a30,30,0,0,0-8.27,3.68,9.21,9.21,0,0,0,.06-2.3,7.54,7.54,0,0,0-.7-2.53,4.66,4.66,0,0,0-.95-1.32,4,4,0,0,0-1.66-1,6.34,6.34,0,0,0-1.63-.2c-.47,0-.83,0-1.24,0q-1.21,0-2.46.15A46.15,46.15,0,0,0,253,122.23c-.63-1-12.39-19.83-17.87-20.66,3.55,5.14,16.07,23.62,15.16,27.37-1.07,4.36-9.37-4.21-9.37-4.21s13.54,21.78,8.37,20.9-6.62.31-2.58,9c.36.79.71,1.66,1,2.57-3.05-2.53-6.46-4.71-9.71-7-3.9-2.74-7.77-5.87-10.4-9.78-.73-1.15-2.87-5-3.09-4.63a107,107,0,0,1-14.89,20.66c-1.44,1.57-3.69,2.46-8.53,8.93a14.31,14.31,0,0,0-.94,1.45,138.91,138.91,0,0,1,3.47-17.62c1.6-6.28,3.33-12.23,4.95-17.61a70.14,70.14,0,0,1,2.54-7.44,25,25,0,0,1,3.44-5.9,19.84,19.84,0,0,0-4.77,5.18,46.12,46.12,0,0,0-3.71,7.26,121.28,121.28,0,0,0-6,17.61,78.22,78.22,0,0,0-2.62,18.22,97.71,97.71,0,0,1-1.84-10.42,26.14,26.14,0,0,0-1.29,8.58,32,32,0,0,0,7.43,20l.16.18a29.11,29.11,0,0,0,2.43,3.24c6.29,7.24,8.88,8.68,11.89,11l1.16-7.65c3.87,4,8.5,7.41,12.92,7.41,6,0,11-7.56,14.26-13.42l1.33,3.41a35,35,0,0,0,8.48-11.31c2.93-4.77,7.3-15.82,4.53-36.86.39,1.26.75,2.57,1.08,3.92a57,57,0,0,1-2.57,35.34A68,68,0,0,1,250.38,193a40.29,40.29,0,0,0,6.51-7.18,32.43,32.43,0,0,0,5.08-2.32,31.1,31.1,0,0,0,7.73-6.23,29.08,29.08,0,0,0,4.83-7.67,41.72,41.72,0,0,0,8.05,22.86c.58.79,1.21,1.51,1.84,2.22s1.28,1.37,1.93,2c1.31,1.25,2.62,2.39,3.86,3.48a43.13,43.13,0,0,1,6.41,6.54,33.35,33.35,0,0,0-5.33-7.6c-1.1-1.26-2.26-2.54-3.38-3.88-.55-.68-1.12-1.34-1.63-2.08s-1-1.44-1.52-2.21a44.93,44.93,0,0,1-6.65-22.4,61,61,0,0,1,4-23.35,113.89,113.89,0,0,1,8.52-17.77,70,70,0,0,0-11,16.75,59.41,59.41,0,0,0-3.94,11.44,51.82,51.82,0,0,0-1.23,8.86A80.37,80.37,0,0,1,267,174.81a92.54,92.54,0,0,1-8,7.76c.3-.51.6-1,.89-1.55a45.35,45.35,0,0,0,2.81-6.43,35.16,35.16,0,0,0,7-14.19,34.11,34.11,0,0,0-.09-17.54c-.91,4.4-1.87,10.29-3.44,16.67-.35,1.42-.71,2.8-1.08,4.13,0-.32.08-.64.1-1a46.24,46.24,0,0,0-2.61-18.91,43.27,43.27,0,0,0-4.59-9.16A64.44,64.44,0,0,0,254.24,123c3.92,0,8.68-.36,13.82-.8l2.38-.21,1.12-.11a5.58,5.58,0,0,1,.69,0,.76.76,0,0,1,.34.11,1.74,1.74,0,0,1,.44.43,6.06,6.06,0,0,1,.75,1.53,9.52,9.52,0,0,1-.31,6.77,7.78,7.78,0,0,0,2.76-4.54,72.53,72.53,0,0,1,8.92-1.54c1.85-.23,3.84-.47,5.87-.76s4.12-.58,6.23-.8c.95-.11,1.88-.18,2.8-.24-2.16.48-3.69,1-3.69,1s-14.2,17.95-14.58,40,16.83,37.39,16.83,37.39l3-5.61-.06-.09h0c2.52-4.91,5.79-11.35,6-12.26.37-1.5,6-10.1,6-10.1s18.7-2.24,28.05-10.84c4.48-1.87,17.19-1.87,24.67-7.1,3-.75,17.2-5.61,17.2-5.61l13.09,4.49s5.23,11.21,7.48,12.71,6.35.75,6.35.75l10.47,10.84,5.61-4.11Z"/><path d="M271.72,212.3a50.42,50.42,0,0,1-14.29,5,75.77,75.77,0,0,1-15.23,1.21c-4.71-.06-8.95-.41-12.48-.69a79.94,79.94,0,0,0,12.42,2,58.77,58.77,0,0,0,15.63-.75,43,43,0,0,0,14.63-5.69,32,32,0,0,0,9.18-8.62A40.38,40.38,0,0,1,271.72,212.3Z"/><path d="M244.9,320.19a67.66,67.66,0,0,0-6.47-5.5,12.6,12.6,0,0,0,12.45,11.52A68.61,68.61,0,0,0,244.9,320.19Z"/><path class="cls-6" d="M231.26,172.63a22.08,22.08,0,0,1,4.92-4.83c2.83-1.91,8.28-3.18,8.28-3.18S242.26,172.54,231.26,172.63Z"/><path class="cls-6" d="M223.55,172.72a41.68,41.68,0,0,0-5.63-4.53,43.84,43.84,0,0,0-8.32-3.67S212,172.8,223.55,172.72Z"/></g></svg>